# xmcd
#
# Track frame offsets: 
#        150
#        15709
#        24180
#        38076
#        54885
#        64418
#        74885
#        93069
#        109858
#        126095
#        139896
#        154304
#        168098
#        182512
#        200967
#        222475
#        235808
#        249712
#        263954
#        280052
#        304667
#        317766
#
# Disc length: 4395 seconds
#
# Revision: 0
# Processed by: cddbd v1.5.2PL0 Copyright (c) Steve Scherf et al.
# Submitted via: ExactAudioCopy v0.99pb5
#
DISCID=42112916
DTITLE=TEMP - Road Music
DYEAR=2009
DGENRE=Bluegrass
TTITLE0=Blackwater Bottom - Buncombe Turnpike
TTITLE1=Watcha Gonna Do - Algia Mae Hinton
TTITLE2=Backroads - Kickin' Grass
TTITLE3=Vellavina - Big Boy Henry
TTITLE4=The High Side of Life - Big Fat Gap
TTITLE5=The Train's Ready - Balsam Range
TTITLE6=Lovin' Pretty Women - Steep Canyon Rangers
TTITLE7=I Got Worry - Chatham County Line
TTITLE8=Down in the Willow Garden - Lo-Fi Breakdown
TTITLE9=Mint Julip - Etta Baker
TTITLE10=As Long As I Live - Maudlin Brothers
TTITLE11=I Won't Be Back No More - George Higgs
TTITLE12=Black Muddy Dreams - Fescue 911
TTITLE13=Miss You Like the Devil - Guitar Gabe
TTITLE14=Jacks - Jonathan Byrd
TTITLE15=I've Been Around the World - Lightnin' Wells
TTITLE16=Keep Me On This Road - Shannon Whitworth
TTITLE17=Trains - Brushfire Stankgrass
TTITLE18=Snatch That Thing - Macavine Hayes
TTITLE19=Cassiopia - Mary Rocap
TTITLE20=Up All Night - Sweet By And By
TTITLE21=Gracie - Shady Grove Band
EXTD=
EXTT0=
EXTT1=
EXTT2=
EXTT3=
EXTT4=
EXTT5=
EXTT6=
EXTT7=
EXTT8=
EXTT9=
EXTT10=
EXTT11=
EXTT12=
EXTT13=
EXTT14=
EXTT15=
EXTT16=
EXTT17=
EXTT18=
EXTT19=
EXTT20=
EXTT21=
PLAYORDER=
